<svg
    xmlns="http://www.w3.org/2000/svg"
    viewBox="0 0 18 21"
    id="vector">
    <path
        id="path"
        d="M 9 21 C 13.97 21 18 16.97 18 12 C 13.03 12 9 16.03 9 21 Z M 2.6 9.25 C 2.6 10.63 3.72 11.75 5.1 11.75 C 5.63 11.75 6.11 11.59 6.52 11.31 L 6.5 11.5 C 6.5 12.88 7.62 14 9 14 C 10.38 14 11.5 12.88 11.5 11.5 L 11.48 11.31 C 11.88 11.59 12.37 11.75 12.9 11.75 C 14.28 11.75 15.4 10.63 15.4 9.25 C 15.4 8.25 14.81 7.4 13.97 7 C 14.81 6.6 15.4 5.75 15.4 4.75 C 15.4 3.37 14.28 2.25 12.9 2.25 C 12.37 2.25 11.89 2.41 11.48 2.69 L 11.5 2.5 C 11.5 1.12 10.38 0 9 0 C 7.62 0 6.5 1.12 6.5 2.5 L 6.52 2.69 C 6.12 2.41 5.63 2.25 5.1 2.25 C 3.72 2.25 2.6 3.37 2.6 4.75 C 2.6 5.75 3.19 6.6 4.03 7 C 3.19 7.4 2.6 8.25 2.6 9.25 Z M 9 4.5 C 10.38 4.5 11.5 5.62 11.5 7 C 11.5 8.38 10.38 9.5 9 9.5 C 7.62 9.5 6.5 8.38 6.5 7 C 6.5 5.62 7.62 4.5 9 4.5 Z M 0 12 C 0 16.97 4.03 21 9 21 C 9 16.03 4.97 12 0 12 Z"
        fill="#ffff63"/>
</svg>
