<svg
    xmlns="http://www.w3.org/2000/svg"
    viewBox="0 0 22 24"
    id="vector">
    <path
        id="path"
        d="M 19.325 20.661 C 15.66 24.253 8.016 24.716 3.723 20.429 C 4.665 19.85 5.607 19.27 7.283 19.386 C 7.911 18.691 8.853 18.227 10.319 18.459 C 11.367 11.971 8.435 9.19 5.921 8.611 C 7.073 9.306 8.749 10.464 9.272 13.361 C 2.675 13.94 2.152 10.001 1 6.409 C 5.503 5.366 8.853 6.293 10.843 10.001 C 11.367 1.427 16.602 0.732 21 0.5 C 20.267 4.324 20.476 10.464 13.461 11.391 C 13.565 8.726 14.613 6.293 17.23 4.092 C 11.995 5.714 11.576 13.94 12.518 18.459 C 13.67 18.459 14.403 18.459 15.136 19.386 C 17.126 19.154 18.801 20.081 19.325 20.661 Z"
        fill="#00000000"
        stroke-width="1"
        fill-rule="evenodd"/>
</svg>
