<svg
    xmlns="http://www.w3.org/2000/svg"
    viewBox="0 0 20 24"
    id="vector">
    <path
        id="path"
        d="M 18.325 20.661 C 14.66 24.253 7.016 24.716 2.723 20.429 C 3.665 19.85 4.607 19.27 6.283 19.386 C 6.911 18.691 7.853 18.227 9.319 18.459 C 10.367 11.971 7.435 9.19 4.921 8.611 C 6.073 9.306 7.749 10.464 8.272 13.361 C 1.675 13.94 1.152 10.001 0 6.409 C 4.503 5.366 7.853 6.293 9.843 10.001 C 10.367 1.427 15.602 0.732 20 0.5 C 19.267 4.324 19.476 10.464 12.461 11.391 C 12.565 8.726 13.613 6.293 16.23 4.092 C 10.995 5.714 10.576 13.94 11.518 18.459 C 12.67 18.459 13.403 18.459 14.136 19.386 C 16.126 19.154 17.801 20.081 18.325 20.661 Z"
        fill="#ffff63"
        fill-rule="evenodd"/>
</svg>
